# xmcd
#
# Track frame offsets:
#	150
#	14302
#	32438
#	47591
#	63713
#	80489
#	96235
#	108293
#	127508
#	144158
#	158253
#	175259
#	193100
#	206189
#
# Disc length: 2913 seconds
#
# Revision: 2
# Processed by: cddbd v1.5.2PL0 Copyright (c) Steve Scherf et al.
# Submitted via: EasyCDDAExtractor 12.0.1.1
#
DISCID=ac0b5f0e
DTITLE=Alfred - Alfred 
DYEAR=1997
DGENRE=Country
TTITLE0=In Mexico
TTITLE1=There Goes My Heart
TTITLE2=I Wonder If I Ever Said Goodbye
TTITLE3=Mona Lisa
TTITLE4=How Are My Angels
TTITLE5=Tina Louise
TTITLE6=She's The Trip
TTITLE7=All You Ever Do Is Bring Me Down
TTITLE8=Alone With The Blue Moon
TTITLE9=Empty Walls
TTITLE10=Anger And Tears
TTITLE11=She Never Spoke Spanish To Me
TTITLE12=If That Back Door Could Talk
TTITLE13=In My Arms Tonight
EXTD=
EXTT0=
EXTT1=
EXTT2=
EXTT3=
EXTT4=
EXTT5=
EXTT6=
EXTT7=
EXTT8=
EXTT9=
EXTT10=
EXTT11=
EXTT12=
EXTT13=
PLAYORDER=
